<svg width="28" height="26" viewBox="0 0 28 26" fill="none" xmlns="http://www.w3.org/2000/svg">
<path d="M14 0.5C11.3629 0.5 8.78505 1.23311 6.59239 2.60663C4.39974 3.98015 2.69077 5.93238 1.6816 8.21646C0.672434 10.5005 0.408389 13.0139 0.922859 15.4386C1.43733 17.8634 2.70721 20.0907 4.57191 21.8388C6.43661 23.587 8.81238 24.7775 11.3988 25.2598C13.9852 25.7421 16.6661 25.4946 19.1024 24.5485C21.5388 23.6024 23.6212 22.0002 25.0863 19.9446C26.5513 17.889 27.3333 15.4723 27.3333 13C27.3333 11.3585 26.9885 9.73303 26.3184 8.21646C25.6483 6.69989 24.6662 5.3219 23.4281 4.16117C22.19 3.00043 20.7201 2.07969 19.1024 1.45151C17.4848 0.823322 15.751 0.5 14 0.5ZM14 23C11.8903 23 9.82804 22.4135 8.07391 21.3147C6.31979 20.2159 4.95262 18.6541 4.14528 16.8268C3.33795 14.9996 3.12671 12.9889 3.53829 11.0491C3.94986 9.10929 4.96576 7.32746 6.45752 5.92893C7.94928 4.53041 9.8499 3.578 11.919 3.19215C13.9882 2.8063 16.1329 3.00433 18.082 3.7612C20.031 4.51808 21.6969 5.79981 22.869 7.4443C24.0411 9.08879 24.6667 11.0222 24.6667 13C24.6667 15.6522 23.5429 18.1957 21.5425 20.0711C19.5421 21.9464 16.829 23 14 23ZM15.3333 5.5H12.6667V14.25H20.6667V11.75H15.3333V5.5Z" fill="#F57328"/>
</svg>
