<svg width="33" height="37" viewBox="0 0 33 37" fill="none" xmlns="http://www.w3.org/2000/svg">
<path d="M10.9877 12.0098H20.9842C21.2604 12.0098 21.4844 11.7591 21.4844 11.4494C21.4844 11.1398 21.2604 10.8883 20.9842 10.8883H10.9877C10.7115 10.8883 10.4879 11.1398 10.4879 11.4494C10.4879 11.7591 10.7115 12.0098 10.9877 12.0098Z" fill="#F57328"/>
<path d="M22.4354 14.696H13.0672C12.7911 14.696 12.5671 14.9467 12.5671 15.2564C12.5671 15.5661 12.7911 15.8175 13.0672 15.8175H22.4354C22.7115 15.8175 22.9351 15.5661 22.9351 15.2564C22.9351 14.9467 22.7115 14.696 22.4354 14.696Z" fill="#F57328"/>
<path d="M19.7675 18.5038H10.9877C10.7115 18.5038 10.4879 18.7545 10.4879 19.0641C10.4879 19.3737 10.7115 19.6245 10.9877 19.6245H19.7675C20.0432 19.6245 20.2672 19.3737 20.2672 19.0641C20.2672 18.7545 20.0432 18.5038 19.7675 18.5038Z" fill="#F57328"/>
<path d="M25.5735 6.2356H7.42661C5.49353 6.2356 3.92017 7.86605 3.92017 9.87113V21.06C3.92017 23.0643 5.49353 24.6948 7.42661 24.6948H18.128L25.8503 30.7643V24.6842C27.6547 24.5369 29.0799 22.9677 29.0799 21.06V9.87113C29.0799 7.86605 27.5065 6.2356 25.5735 6.2356ZM27.5799 21.06C27.5799 22.1369 26.6793 23.013 25.5734 23.013H24.3502V27.5313L18.6014 23.013H7.42654C6.32027 23.013 5.42005 22.1369 5.42005 21.06V9.87113C5.42005 8.79344 6.32027 7.91743 7.42654 7.91743H25.5734C26.6793 7.91743 27.5799 8.79351 27.5799 9.87113V21.06Z" fill="#F57328"/>
</svg>
