<svg width="42" height="44" viewBox="0 0 42 44" fill="none" xmlns="http://www.w3.org/2000/svg">
<path d="M13.9844 14.2819H26.7072C27.0587 14.2819 27.3437 13.9838 27.3437 13.6155C27.3437 13.2473 27.0587 12.9482 26.7072 12.9482H13.9844C13.6329 12.9482 13.3483 13.2473 13.3483 13.6155C13.3483 13.9838 13.6329 14.2819 13.9844 14.2819Z" fill="#F57328"/>
<path d="M28.5541 17.4764H16.631C16.2796 17.4764 15.9945 17.7746 15.9945 18.1428C15.9945 18.511 16.2796 18.8101 16.631 18.8101H28.5541C28.9055 18.8101 29.1902 18.511 29.1902 18.1428C29.1902 17.7746 28.9055 17.4764 28.5541 17.4764Z" fill="#F57328"/>
<path d="M25.1586 22.0045H13.9844C13.6329 22.0045 13.3483 22.3026 13.3483 22.6709C13.3483 23.039 13.6329 23.3372 13.9844 23.3372H25.1586C25.5096 23.3372 25.7947 23.039 25.7947 22.6709C25.7946 22.3026 25.5096 22.0045 25.1586 22.0045Z" fill="#F57328"/>
<path d="M32.548 7.41541H9.45206C6.99178 7.41541 4.98932 9.35433 4.98932 11.7387V25.0445C4.98932 27.4279 6.99178 29.3668 9.45206 29.3668H23.072L32.9004 36.5847V29.3543C35.1969 29.1792 37.0108 27.313 37.0108 25.0445V11.7387C37.0108 9.35433 35.0083 7.41541 32.548 7.41541ZM35.1017 25.0445C35.1017 26.3251 33.9555 27.3669 32.548 27.3669H30.9912V32.74L23.6746 27.3669H9.45198C8.044 27.3669 6.89827 26.3251 6.89827 25.0445V11.7387C6.89827 10.4572 8.044 9.41543 9.45198 9.41543H32.548C33.9555 9.41543 35.1017 10.4572 35.1017 11.7387V25.0445Z" fill="#F57328"/>
</svg>
