<svg width="76" height="68" viewBox="0 0 76 68" fill="none" xmlns="http://www.w3.org/2000/svg">
<rect x="0.5" y="0.5" width="75" height="67" rx="16.5" fill="white" stroke="#FF9922"/>
<path d="M51.7188 40.9062H36.0938V43.7812H51.7188V40.9062Z" fill="#FFD966"/>
<path d="M43.125 40.9062H36.0938V43.7812H43.125V40.9062Z" fill="#FFD966"/>
<path d="M51.7188 43.0625H36.0938V43.7812H51.7188V43.0625Z" fill="#FFC400"/>
<path d="M37.6562 40.9062H36.875V43.0625H37.6562V40.9062Z" fill="white"/>
<path d="M47.0312 40.9062H46.25V43.0625H47.0312V40.9062Z" fill="#FFC400"/>
<path d="M48.5938 40.9062H47.8125V43.0625H48.5938V40.9062Z" fill="#FFC400"/>
<path d="M50.1562 40.9062H49.375V43.0625H50.1562V40.9062Z" fill="#FFC400"/>
<path d="M51.7188 40.9062H50.9375V43.0625H51.7188V40.9062Z" fill="#FFC400"/>
<path d="M50.9375 38.0312H35.3125V40.9062H50.9375V38.0312Z" fill="#FFD966"/>
<path d="M42.3438 38.0312H35.3125V40.9062H42.3438V38.0312Z" fill="#FFD966"/>
<path d="M50.9375 40.1875H35.3125V40.9062H50.9375V40.1875Z" fill="#FFC400"/>
<path d="M36.875 38.0312H36.0938V40.1875H36.875V38.0312Z" fill="white"/>
<path d="M46.25 38.0312H45.4688V40.1875H46.25V38.0312Z" fill="#FFC400"/>
<path d="M47.8125 38.0312H47.0312V40.1875H47.8125V38.0312Z" fill="#FFC400"/>
<path d="M49.375 38.0312H48.5938V40.1875H49.375V38.0312Z" fill="#FFC400"/>
<path d="M50.9375 38.0312H50.1562V40.1875H50.9375V38.0312Z" fill="#FFC400"/>
<path d="M38.6164 27.0308C35.7234 24.3685 35.7234 20.0373 38.6164 17.3737C41.5109 14.7121 46.2187 14.7121 49.1133 17.3737C52.007 20.0366 52.007 24.3678 49.1133 27.0308C46.2195 29.6937 41.5109 29.693 38.6164 27.0308Z" fill="#FFD966"/>
<path d="M43.9062 15.75C47.7836 15.75 50.9375 18.6516 50.9375 22.2188C50.9375 25.7859 47.7836 28.6875 43.9062 28.6875C40.0289 28.6875 36.875 25.7859 36.875 22.2188C36.875 18.6516 40.0289 15.75 43.9062 15.75ZM43.9062 15.0312C39.5914 15.0312 36.0938 18.2498 36.0938 22.2188C36.0938 26.1877 39.5914 29.4062 43.9062 29.4062C48.2211 29.4062 51.7188 26.1877 51.7188 22.2188C51.7188 18.2498 48.2211 15.0312 43.9062 15.0312Z" fill="#FDD835"/>
<path d="M37.8031 26.0468C36.5797 23.4262 37.1188 20.2774 39.4445 18.1362C41.8922 15.8851 45.5539 15.451 48.482 16.8137C48.482 16.7368 48.4836 16.6606 48.4883 16.5845C45.4789 14.8896 41.4969 15.2318 38.8922 17.6281C36.4047 19.9166 35.9469 23.3637 37.5156 26.0806C37.6109 26.0669 37.7063 26.054 37.8031 26.0468Z" fill="white"/>
<path d="M43.9062 27.6094C40.675 27.6094 38.0469 25.1915 38.0469 22.2188C38.0469 19.246 40.675 16.8281 43.9062 16.8281C47.1375 16.8281 49.7656 19.246 49.7656 22.2188C49.7656 25.1915 47.1375 27.6094 43.9062 27.6094Z" fill="#FFD966"/>
<path d="M43.9062 17.1875C46.9211 17.1875 49.375 19.4451 49.375 22.2188C49.375 24.9924 46.9211 27.25 43.9062 27.25C40.8914 27.25 38.4375 24.9924 38.4375 22.2188C38.4375 19.4451 40.8914 17.1875 43.9062 17.1875ZM43.9062 16.4688C40.4547 16.4688 37.6562 19.0447 37.6562 22.2188C37.6562 25.3927 40.4547 27.9688 43.9062 27.9688C47.3578 27.9688 50.1562 25.3927 50.1562 22.2188C50.1562 19.0447 47.3578 16.4688 43.9062 16.4688Z" fill="#FFC400"/>
<path d="M43.9062 20.0625C44.468 20.0625 44.6875 20.437 44.6875 20.7812H46.25C46.25 20.1962 45.7234 19.6176 44.6875 19.4199V18.625H43.125V19.4099C42.0891 19.5824 41.5625 20.1351 41.5625 21.1406C41.5625 22.0843 42.368 22.9375 43.9062 22.9375C44.357 22.9375 44.6875 23.2523 44.6875 23.6562C44.6875 24.0839 44.4266 24.375 43.9062 24.375C43.3859 24.375 43.125 24.1112 43.125 23.6562H41.5625C41.5625 24.5511 42.0969 24.9356 43.125 25.0506V25.8125H44.6875V25.0398C45.7234 24.8961 46.2695 24.4117 46.25 23.2969C46.25 22.3086 45.4688 21.5007 43.9062 21.5007C43.4664 21.5007 43.125 21.2757 43.125 20.7812C43.125 20.4089 43.3445 20.0625 43.9062 20.0625Z" fill="#FFAB00"/>
<path d="M43.9062 15.75C47.7836 15.75 50.9375 18.6516 50.9375 22.2188C50.9375 25.7859 47.7836 28.6875 43.9062 28.6875C40.0289 28.6875 36.875 25.7859 36.875 22.2188C36.875 18.6516 40.0289 15.75 43.9062 15.75ZM43.9062 15.0312C39.5914 15.0312 36.0938 18.2498 36.0938 22.2188C36.0938 26.1877 39.5914 29.4062 43.9062 29.4062C48.2211 29.4062 51.7188 26.1877 51.7188 22.2188C51.7188 18.2498 48.2211 15.0312 43.9062 15.0312Z" fill="#FFC400"/>
<path d="M51.7188 29.4062H36.0938V32.2812H51.7188V29.4062Z" fill="#FFD966"/>
<path d="M43.125 29.4062H36.0938V32.2812H43.125V29.4062Z" fill="#FFD966"/>
<path d="M51.7188 31.5625H36.0938V32.2812H51.7188V31.5625Z" fill="#FFC400"/>
<path d="M37.6562 29.4062H36.875V31.5625H37.6562V29.4062Z" fill="white"/>
<path d="M47.0312 29.4062H46.25V31.5625H47.0312V29.4062Z" fill="#FFC400"/>
<path d="M48.5938 29.4062H47.8125V31.5625H48.5938V29.4062Z" fill="#FFC400"/>
<path d="M50.1562 29.4062H49.375V31.5625H50.1562V29.4062Z" fill="#FFC400"/>
<path d="M51.7188 29.4062H50.9375V31.5625H51.7188V29.4062Z" fill="#FFC400"/>
<path d="M50.9375 32.2812H35.3125V35.1562H50.9375V32.2812Z" fill="#FFD966"/>
<path d="M42.3438 32.2812H35.3125V35.1562H42.3438V32.2812Z" fill="#FFD966"/>
<path d="M50.9375 34.4375H35.3125V35.1562H50.9375V34.4375Z" fill="#FFC400"/>
<path d="M36.875 32.2812H36.0938V34.4375H36.875V32.2812Z" fill="white"/>
<path d="M46.25 32.2812H45.4688V34.4375H46.25V32.2812Z" fill="#FFC400"/>
<path d="M47.8125 32.2812H47.0312V34.4375H47.8125V32.2812Z" fill="#FFC400"/>
<path d="M49.375 32.2812H48.5938V34.4375H49.375V32.2812Z" fill="#FFC400"/>
<path d="M50.9375 32.2812H50.1562V34.4375H50.9375V32.2812Z" fill="#FFC400"/>
<path d="M51.7188 35.1562H36.0938V38.0312H51.7188V35.1562Z" fill="#FFD966"/>
<path d="M43.125 35.1562H36.0938V38.0312H43.125V35.1562Z" fill="#FFD966"/>
<path d="M51.7188 37.3125H36.0938V38.0312H51.7188V37.3125Z" fill="#FFC400"/>
<path d="M37.6562 35.1562H36.875V37.3125H37.6562V35.1562Z" fill="white"/>
<path d="M47.0312 35.1562H46.25V37.3125H47.0312V35.1562Z" fill="#FFC400"/>
<path d="M48.5938 35.1562H47.8125V37.3125H48.5938V35.1562Z" fill="#FFC400"/>
<path d="M50.1562 35.1562H49.375V37.3125H50.1562V35.1562Z" fill="#FFC400"/>
<path d="M51.7188 35.1562H50.9375V37.3125H51.7188V35.1562Z" fill="#FFC400"/>
<path opacity="0.1" d="M50.9375 42.3028C50.9148 42.3085 50.8891 42.3143 50.8891 42.3143L50.1125 42.3438C50.1125 42.3438 49.0594 38.75 44.6383 38.75H39.2047L37.6562 38.0312H36.0938V40.9062H37.6562V43.0625V43.7812H44.6875H50.9375V42.3028Z" fill="#37474F"/>
<path d="M35.2641 43.7812H49.375C49.375 43.0625 49.375 39.4688 43.8571 39.4688H35.2633C33.9696 39.4688 32.9196 40.4347 32.9196 41.625C32.9196 42.8152 33.9696 43.7812 35.2641 43.7812Z" fill="#F4D0A1"/>
<path d="M49.343 43.1818C47.4328 43.5362 45.4688 43.7813 45.4688 43.7813H49.375C49.375 43.6569 49.3719 43.4442 49.343 43.1818Z" fill="#F4D0A1"/>
<path d="M57.9688 38.75C55.5531 40.0833 54.0625 41.625 52.5 42.3632C52 42.5989 51.1 42.8289 50.1078 43.033C50.1398 43.2731 50.1562 43.5225 50.1562 43.7812V44.5H49.375H36.875V43.7812H45.4688L38.4375 42.3438L39.2188 40.1875C39.2188 40.1875 37.6562 38.0312 32.9688 38.0312C29.0625 38.0312 28.2812 39.4688 26.7188 39.4688H20.4688V48.8125H29.0625L41.6187 52.0217C42.45 52.2338 43.7586 52.1338 44.5406 51.7982L54.8438 47.375L62.6562 40.9062C63.4375 40.1875 61.875 36.5938 57.9688 38.75Z" fill="#F4D0A1"/>
<path d="M57.9688 40.1875C55.625 41.625 54.0625 43.0625 52.5 43.8006C52.0086 44.0328 51.1297 44.1881 50.1562 44.2923V44.5H49.375H45.7555C45.5773 44.5007 45.4688 44.5 45.4688 44.5H36.875V43.7812H43.125H49.375C49.375 43.0625 48.9664 40.9062 43.857 40.9062H38.4234C37.5391 40.2788 35.8438 39.4687 32.9688 39.4687C29.0625 39.4687 28.2812 40.9062 26.7188 40.9062H20.4688V48.8125H29.0625L41.6187 52.0217C42.45 52.2337 43.7586 52.1338 44.5406 51.7982L54.8438 47.375L62.6562 40.9062C63.4375 40.1875 62.6562 37.3125 57.9688 40.1875Z" fill="#EDBC7C"/>
<path d="M48.5938 43.0625C48.5938 41.8722 47.5438 40.9062 46.25 40.9062C44.9562 40.9062 44.6875 41.8722 44.6875 43.0625C44.6875 43.3162 44.7039 43.5556 44.7352 43.7812H48.4508C48.5375 43.5556 48.5938 43.3162 48.5938 43.0625Z" fill="#F6D9B4"/>
<path d="M26.7188 38.75H24.375V49.5312H26.7188V38.75Z" fill="#CFD8DC"/>
<path d="M26.7188 41.625H24.375V49.5312H26.7188V41.625Z" fill="#B0BEC5"/>
<path d="M24.375 38.0312H17.3438V51.6875H24.375V38.0312Z" fill="#546E7A"/>
<path d="M24.375 41.625H17.3438V51.6875H24.375V41.625Z" fill="#455A64"/>
</svg>
