<svg width="76" height="68" viewBox="0 0 76 68" fill="none" xmlns="http://www.w3.org/2000/svg">
<rect x="0.5" y="0.5" width="75" height="67" rx="16.5" fill="white" stroke="#FF9922"/>
<g clip-path="url(#clip0_714_83)">
<path d="M39.5208 52.5416C30.6042 52.5416 23.375 48.295 23.375 41.5V30.4583H55.6667V41.5C55.6667 47.2096 48.4375 52.5416 39.5208 52.5416Z" fill="#203442"/>
<path d="M62.0948 26.0316L42.4375 15.8435C41.3671 15.2891 40.1914 15.001 39 15.001C37.8087 15.001 36.633 15.2891 35.5625 15.8435L15.9053 26.0316C15.3207 26.3343 14.8304 26.8086 14.4929 27.3981C14.1553 27.9877 13.9846 28.6676 14.001 29.357C14.0175 30.0464 14.2204 30.7163 14.5857 31.2869C14.951 31.8576 15.4632 32.305 16.0615 32.576L18.6875 33.7707L35.9198 41.5871C36.8933 42.0286 37.9412 42.2563 39 42.2563C40.0589 42.2563 41.1068 42.0286 42.0803 41.5871L59.3125 33.7707L61.9386 32.5804C62.538 32.31 63.0514 31.8626 63.4176 31.2914C63.7837 30.7203 63.9871 30.0496 64.0036 29.3593C64.0201 28.669 63.8489 27.9882 63.5104 27.3982C63.172 26.8082 62.6806 26.3338 62.0948 26.0316Z" fill="#4C5665"/>
<path d="M55.6667 56.9583C55.3904 56.9583 55.1255 56.842 54.9301 56.6349C54.7348 56.4278 54.625 56.147 54.625 55.8542V36.3778L39.9563 28.4046C39.7104 28.2707 39.5247 28.0389 39.4401 27.7599C39.3556 27.481 39.379 27.1779 39.5052 26.9173C39.6315 26.6566 39.8502 26.4598 40.1134 26.3702C40.3765 26.2805 40.6625 26.3053 40.9083 26.4392L56.7083 35.0285V55.8542C56.7083 56.147 56.5986 56.4278 56.4032 56.6349C56.2079 56.842 55.9429 56.9583 55.6667 56.9583Z" fill="#ECF0F1"/>
<path d="M39.5209 30.4583C42.1097 30.4583 44.2084 28.9753 44.2084 27.1458C44.2084 25.3164 42.1097 23.8333 39.5209 23.8333C36.932 23.8333 34.8334 25.3164 34.8334 27.1458C34.8334 28.9753 36.932 30.4583 39.5209 30.4583Z" fill="#203442"/>
<path d="M55.6667 62.4791C57.9679 62.4791 59.8333 60.5017 59.8333 58.0625C59.8333 55.6232 57.9679 53.6458 55.6667 53.6458C53.3655 53.6458 51.5 55.6232 51.5 58.0625C51.5 60.5017 53.3655 62.4791 55.6667 62.4791Z" fill="#FF9922"/>
</g>
<defs>
<clipPath id="clip0_714_83">
<rect width="50" height="53" fill="white" transform="translate(14 15)"/>
</clipPath>
</defs>
</svg>
