<svg width="76" height="68" viewBox="0 0 76 68" fill="none" xmlns="http://www.w3.org/2000/svg">
<rect x="0.5" y="0.5" width="75" height="67" rx="16.5" fill="white" stroke="#FF9922"/>
<path d="M45.1129 40.2258V39.3548C45.1129 37.2645 44.2279 35.2961 42.6101 33.8068C41.9535 33.2145 41.1922 32.7268 40.3643 32.3522C40.9448 31.6293 41.3064 30.741 41.3064 29.7742C41.3064 27.3703 39.1748 25.4193 36.5483 25.4193C33.9219 25.4193 31.7903 27.3703 31.7903 29.7742C31.7903 30.741 32.1424 31.6206 32.7324 32.3435C29.8775 33.65 27.9838 36.3587 27.9838 39.3548V40.2258C27.9838 40.7048 28.4121 41.0968 28.9354 41.0968H44.1612C44.6846 41.0968 45.1129 40.7048 45.1129 40.2258ZM36.5483 27.1613C38.1185 27.1613 39.4032 28.3371 39.4032 29.7742C39.4032 31.2113 38.1185 32.3871 36.5483 32.3871C34.9782 32.3871 33.6935 31.2113 33.6935 29.7742C33.6935 28.3371 34.9782 27.1613 36.5483 27.1613ZM29.8871 39.3548C29.8871 36.7681 31.7141 34.46 34.3596 33.6151C35.0162 33.9374 35.7585 34.129 36.5483 34.129C37.3477 34.129 38.0804 33.9287 38.7466 33.6151C39.6887 33.92 40.5641 34.399 41.2588 35.0435C42.515 36.2019 43.2096 37.7348 43.2096 39.3548H29.8871Z" fill="#FF9922"/>
<path d="M62.6321 45.53L54.629 42.2726V24.3219L57.9406 26.1684C58.0929 26.2468 58.2642 26.2903 58.4355 26.2903C58.5211 26.2903 58.6163 26.2816 58.7019 26.2555C58.9588 26.1858 59.1682 26.029 59.2919 25.8113L61.1951 22.3274C61.414 21.9181 61.2617 21.4216 60.8335 21.1952L54.629 17.781V9.74194C54.629 9.2629 54.2008 8.87097 53.6774 8.87097H47.9677C47.4443 8.87097 47.0161 9.2629 47.0161 9.74194V13.6003L37.0337 8.12194C36.9956 8.10452 36.948 8.09581 36.91 8.07839C36.8529 8.05226 36.7863 8.02613 36.7292 8.01742C36.6721 8.00871 36.6055 8.01742 36.5484 8.01742C36.4913 8.01742 36.4247 8.01742 36.3676 8.02613C36.3009 8.03484 36.2438 8.06097 36.1868 8.0871C36.1487 8.10452 36.1011 8.10452 36.063 8.13065L12.2727 21.1952C11.8445 21.4303 11.6922 21.9268 11.9111 22.3274L13.8143 25.8113C13.938 26.029 14.1474 26.1945 14.4043 26.2555C14.4805 26.2816 14.5756 26.2903 14.6613 26.2903C14.8326 26.2903 15.0038 26.2468 15.1561 26.1597L18.4677 24.3219V48.9355C18.4677 50.3726 19.7524 51.5484 21.3226 51.5484H44.4087C45.3032 56.0861 48.5863 60.0142 53.2872 61.9216C53.4109 61.9739 53.5442 62 53.6774 62C53.8106 62 53.9438 61.9739 54.0676 61.9216C59.6059 59.6658 63.1935 54.6229 63.1935 49.0661V46.3226C63.1935 45.9742 62.9747 45.6694 62.6321 45.53ZM48.9193 10.6129H52.7258V16.7358L48.9193 14.6455V10.6129ZM15.0514 24.1826L14.0047 22.2665L36.5484 9.89L59.0921 22.2665L58.0453 24.1826L37.0432 12.4855C37.0051 12.4594 36.9576 12.4594 36.9195 12.4419C36.8624 12.4158 36.7958 12.3897 36.7387 12.381C36.6721 12.3723 36.615 12.3723 36.5484 12.3723C36.4913 12.3723 36.4342 12.3723 36.3771 12.381C36.3105 12.3897 36.2534 12.4158 36.1868 12.4419C36.1487 12.4594 36.1011 12.4594 36.063 12.4855L15.0514 24.1826ZM21.3226 49.8065C20.7992 49.8065 20.3709 49.4145 20.3709 48.9355V23.2594L36.5484 14.2448L52.7258 23.2594V42.2726L44.7227 45.53C44.3801 45.6694 44.1613 45.9742 44.1613 46.3226V49.0661C44.1613 49.31 44.1803 49.5626 44.1898 49.8065H21.3226ZM61.2903 49.0661C61.2903 53.8042 58.3117 58.1155 53.6774 60.171C49.043 58.1242 46.0645 53.8042 46.0645 49.0661V46.8887L53.6774 43.7968L61.2903 46.8887V49.0661Z" fill="#FF9922"/>
<path d="M51.4982 51.801C51.127 51.4613 50.5275 51.4613 50.1564 51.801C49.7853 52.1406 49.7853 52.6894 50.1564 53.029L52.0596 54.771C52.2404 54.9452 52.4783 55.0323 52.7258 55.0323C52.9732 55.0323 53.2111 54.9452 53.4014 54.7797L58.1595 50.4248C58.5306 50.0852 58.5306 49.5365 58.1595 49.1968C57.7883 48.8571 57.1888 48.8571 56.8177 49.1968L52.7258 52.9332L51.4982 51.801Z" fill="#FF9922"/>
</svg>
